<?xml version="1.0" encoding="utf-8"?>
<!-- Generator: Adobe Illustrator 25.0.0, SVG Export Plug-In . SVG Version: 6.00 Build 0)  -->
<svg version="1.2" baseProfile="tiny" id="Layer_1" xmlns="http://www.w3.org/2000/svg" xmlns:xlink="http://www.w3.org/1999/xlink"
	 x="0px" y="0px" viewBox="0 0 469.14 404.72" overflow="visible" xml:space="preserve">
<g id="Layer_3">
</g>
<g id="Layer_2_1_">
	<g>
		<path fill="#FFFFFF" stroke="#000000" stroke-width="25" stroke-miterlimit="10" d="M454.65,138.62
			C440.91,16.88,365.93,19.08,321.02,15.53c-30.66-2.42-141.16-2.42-171.82,0c-44.9,3.55-119.88,1.35-133.62,123.09
			c-1.16,7.4-1.16,56.41,0,63.8c13.74,121.75,88.72,119.55,133.63,123.1c2.4,0.19,5.3,0.37,8.61,0.53
			c35.21,2.5,42.83,8.3,36.22,26.97c-12.77,36.04,34.16,54.6,64.46,16.59c24.41-30.62,25.04-40.44,43.92-43.16
			c7.63-0.25,14.02-0.56,18.6-0.93c44.91-3.55,119.88-1.35,133.62-123.09C455.81,195.03,455.81,146.02,454.65,138.62z"/>
		<path stroke="#000000" stroke-width="17" stroke-miterlimit="10" d="M114.1,120.14c35.42-50.09,78.14-4.87,133.19,6.05
			c60.6,12.02,100.34-27.63,122.68,23.14c19.88,45.2-31.31,128.84-147.15,112C108.55,244.72,87.3,158.04,114.1,120.14z"/>
		<path fill="#ED204C" d="M194.42,159.2c-45.35-29.94-75.21-1.4-87.25,14.65c12.47,41.03,53.31,78.33,121.75,88.28
			c38.5,5.6,86.26-5.81,110.41-25.82C300.29,121.59,194.42,159.2,194.42,159.2z"/>
		<g>
			<path fill="none" stroke="#000000" stroke-width="17" stroke-linejoin="round" stroke-miterlimit="10" d="M194.42,159.2
				c-45.35-29.94-75.21-1.4-87.25,14.65c13.99,38.51,35.63,75.76,127.95,88.91c46.97,6.69,80.03-12.25,104.21-26.46
				C279.33,110.14,194.42,159.2,194.42,159.2z"/>
			<path fill="none" stroke="#000000" stroke-width="17" stroke-linecap="round" stroke-miterlimit="10" d="M190.5,156.67
				c23.88,18.02,38.41,42.12,38.41,42.12"/>
		</g>
	</g>
</g>
</svg>
